<mxfile host="Electron" agent="Mozilla/5.0 (Windows NT 10.0; Win64; x64) AppleWebKit/537.36 (KHTML, like Gecko) draw.io/24.7.17 Chrome/128.0.6613.36 Electron/32.0.1 Safari/537.36" version="24.7.17">
  <diagram id="tKd-j2QoXDF06WTp_H1R" name="Functional Profile">
    <mxGraphModel dx="1098" dy="892" grid="1" gridSize="10" guides="1" tooltips="1" connect="1" arrows="1" fold="1" page="1" pageScale="1" pageWidth="1169" pageHeight="827" math="0" shadow="0">
      <root>
        <mxCell id="0" />
        <mxCell id="1" parent="0" />
        <mxCell id="LD4AkKPJEX8BpILxFHVp-9" value="" style="rounded=0;orthogonalLoop=1;jettySize=auto;html=1;fontSize=12;endArrow=none;endFill=0;" parent="1" source="LD4AkKPJEX8BpILxFHVp-6" target="LD4AkKPJEX8BpILxFHVp-8" edge="1">
          <mxGeometry relative="1" as="geometry" />
        </mxCell>
        <mxCell id="LD4AkKPJEX8BpILxFHVp-11" value="" style="rounded=0;orthogonalLoop=1;jettySize=auto;html=1;fontSize=12;endArrow=none;endFill=0;" parent="1" source="LD4AkKPJEX8BpILxFHVp-6" target="LD4AkKPJEX8BpILxFHVp-10" edge="1">
          <mxGeometry relative="1" as="geometry" />
        </mxCell>
        <mxCell id="LD4AkKPJEX8BpILxFHVp-28" value="" style="edgeStyle=none;rounded=0;orthogonalLoop=1;jettySize=auto;html=1;strokeColor=default;fontSize=12;endArrow=none;endFill=0;" parent="1" source="LD4AkKPJEX8BpILxFHVp-6" target="LD4AkKPJEX8BpILxFHVp-27" edge="1">
          <mxGeometry relative="1" as="geometry" />
        </mxCell>
        <mxCell id="LD4AkKPJEX8BpILxFHVp-6" value="Functional Profile" style="whiteSpace=wrap;html=1;align=center;fontSize=15;fillColor=#d5e8d4;strokeColor=#82b366;fontStyle=1" parent="1" vertex="1">
          <mxGeometry x="220" y="190" width="380" height="60" as="geometry" />
        </mxCell>
        <mxCell id="LD4AkKPJEX8BpILxFHVp-8" value="Classification" style="ellipse;whiteSpace=wrap;html=1;fillColor=#f5f5f5;fontColor=#333333;strokeColor=#666666;fontSize=14;" parent="1" vertex="1">
          <mxGeometry x="140" y="110" width="130" height="40" as="geometry" />
        </mxCell>
        <mxCell id="LD4AkKPJEX8BpILxFHVp-10" value="Release Notes" style="ellipse;whiteSpace=wrap;html=1;fillColor=#f5f5f5;fontColor=#333333;strokeColor=#666666;fontSize=14;" parent="1" vertex="1">
          <mxGeometry x="350" y="90" width="130" height="40" as="geometry" />
        </mxCell>
        <mxCell id="LD4AkKPJEX8BpILxFHVp-30" value="" style="edgeStyle=none;rounded=0;orthogonalLoop=1;jettySize=auto;html=1;strokeColor=default;fontSize=12;endArrow=none;endFill=0;" parent="1" source="LD4AkKPJEX8BpILxFHVp-22" target="LD4AkKPJEX8BpILxFHVp-29" edge="1">
          <mxGeometry relative="1" as="geometry" />
        </mxCell>
        <mxCell id="LD4AkKPJEX8BpILxFHVp-33" value="" style="edgeStyle=none;rounded=0;orthogonalLoop=1;jettySize=auto;html=1;strokeColor=default;fontSize=12;endArrow=none;endFill=0;" parent="1" source="LD4AkKPJEX8BpILxFHVp-22" target="LD4AkKPJEX8BpILxFHVp-32" edge="1">
          <mxGeometry relative="1" as="geometry" />
        </mxCell>
        <mxCell id="LD4AkKPJEX8BpILxFHVp-36" value="" style="edgeStyle=none;rounded=0;orthogonalLoop=1;jettySize=auto;html=1;strokeColor=default;fontSize=12;endArrow=none;endFill=0;" parent="1" source="LD4AkKPJEX8BpILxFHVp-22" target="LD4AkKPJEX8BpILxFHVp-35" edge="1">
          <mxGeometry relative="1" as="geometry" />
        </mxCell>
        <mxCell id="LD4AkKPJEX8BpILxFHVp-39" value="" style="edgeStyle=none;rounded=0;orthogonalLoop=1;jettySize=auto;html=1;strokeColor=default;fontSize=12;endArrow=none;endFill=0;" parent="1" source="LD4AkKPJEX8BpILxFHVp-22" target="LD4AkKPJEX8BpILxFHVp-38" edge="1">
          <mxGeometry relative="1" as="geometry" />
        </mxCell>
        <mxCell id="LD4AkKPJEX8BpILxFHVp-41" value="" style="edgeStyle=none;rounded=0;orthogonalLoop=1;jettySize=auto;html=1;strokeColor=default;fontSize=12;endArrow=none;endFill=0;" parent="1" source="LD4AkKPJEX8BpILxFHVp-22" target="LD4AkKPJEX8BpILxFHVp-40" edge="1">
          <mxGeometry relative="1" as="geometry" />
        </mxCell>
        <mxCell id="LD4AkKPJEX8BpILxFHVp-43" value="" style="edgeStyle=none;rounded=0;orthogonalLoop=1;jettySize=auto;html=1;strokeColor=default;fontSize=12;endArrow=none;endFill=0;" parent="1" source="LD4AkKPJEX8BpILxFHVp-22" target="LD4AkKPJEX8BpILxFHVp-42" edge="1">
          <mxGeometry relative="1" as="geometry" />
        </mxCell>
        <mxCell id="LD4AkKPJEX8BpILxFHVp-22" value="Data Point" style="whiteSpace=wrap;html=1;align=center;fontSize=15;fillColor=#dae8fc;strokeColor=#6c8ebf;fontStyle=1" parent="1" vertex="1">
          <mxGeometry x="280" y="360" width="260" height="60" as="geometry" />
        </mxCell>
        <mxCell id="LD4AkKPJEX8BpILxFHVp-27" value="Descriptions" style="ellipse;whiteSpace=wrap;html=1;fillColor=#f5f5f5;fontColor=#333333;strokeColor=#666666;fontSize=14;" parent="1" vertex="1">
          <mxGeometry x="570" y="110" width="150" height="50" as="geometry" />
        </mxCell>
        <mxCell id="LD4AkKPJEX8BpILxFHVp-29" value="Name" style="ellipse;whiteSpace=wrap;html=1;fillColor=#f5f5f5;fontColor=#333333;strokeColor=#666666;fontSize=14;" parent="1" vertex="1">
          <mxGeometry x="120" y="390" width="120" height="39" as="geometry" />
        </mxCell>
        <mxCell id="LD4AkKPJEX8BpILxFHVp-31" style="edgeStyle=none;rounded=0;orthogonalLoop=1;jettySize=auto;html=1;exitX=0.5;exitY=1;exitDx=0;exitDy=0;strokeColor=default;fontSize=12;" parent="1" source="LD4AkKPJEX8BpILxFHVp-22" target="LD4AkKPJEX8BpILxFHVp-22" edge="1">
          <mxGeometry relative="1" as="geometry" />
        </mxCell>
        <mxCell id="LD4AkKPJEX8BpILxFHVp-32" value="Physical Unit" style="ellipse;whiteSpace=wrap;html=1;fillColor=#f5f5f5;fontColor=#333333;strokeColor=#666666;fontSize=14;" parent="1" vertex="1">
          <mxGeometry x="240" y="530" width="120" height="40" as="geometry" />
        </mxCell>
        <mxCell id="LD4AkKPJEX8BpILxFHVp-35" value="Data Type" style="ellipse;whiteSpace=wrap;html=1;fillColor=#f5f5f5;fontColor=#333333;strokeColor=#666666;fontSize=14;" parent="1" vertex="1">
          <mxGeometry x="370" y="550" width="120" height="40" as="geometry" />
        </mxCell>
        <mxCell id="LD4AkKPJEX8BpILxFHVp-38" value="Read / Write" style="ellipse;whiteSpace=wrap;html=1;fillColor=#f5f5f5;fontColor=#333333;strokeColor=#666666;fontSize=14;" parent="1" vertex="1">
          <mxGeometry x="510" y="540" width="120" height="40" as="geometry" />
        </mxCell>
        <mxCell id="LD4AkKPJEX8BpILxFHVp-40" value="Mandatory / Recommended / Optional" style="ellipse;whiteSpace=wrap;html=1;fillColor=#f5f5f5;fontColor=#333333;strokeColor=#666666;fontSize=14;" parent="1" vertex="1">
          <mxGeometry x="610" y="450" width="160" height="60" as="geometry" />
        </mxCell>
        <mxCell id="LD4AkKPJEX8BpILxFHVp-42" value="Descriptions" style="ellipse;whiteSpace=wrap;html=1;fillColor=#f5f5f5;fontColor=#333333;strokeColor=#666666;fontSize=14;" parent="1" vertex="1">
          <mxGeometry x="110" y="480" width="150" height="50" as="geometry" />
        </mxCell>
        <mxCell id="Q_Q-4k93iJrwOQs1B63T-6" value="1" style="edgeStyle=orthogonalEdgeStyle;rounded=0;orthogonalLoop=1;jettySize=auto;html=1;strokeColor=default;fontSize=15;endArrow=none;endFill=0;exitX=0.5;exitY=0;exitDx=0;exitDy=0;" parent="1" source="Q_Q-4k93iJrwOQs1B63T-5" target="LD4AkKPJEX8BpILxFHVp-6" edge="1">
          <mxGeometry relative="1" as="geometry">
            <mxPoint x="290" y="290" as="sourcePoint" />
          </mxGeometry>
        </mxCell>
        <mxCell id="Q_Q-4k93iJrwOQs1B63T-7" value="N" style="edgeStyle=orthogonalEdgeStyle;rounded=0;orthogonalLoop=1;jettySize=auto;html=1;strokeColor=default;fontSize=15;endArrow=none;endFill=0;" parent="1" source="Q_Q-4k93iJrwOQs1B63T-5" target="LD4AkKPJEX8BpILxFHVp-22" edge="1">
          <mxGeometry relative="1" as="geometry" />
        </mxCell>
        <mxCell id="Q_Q-4k93iJrwOQs1B63T-5" value="contains" style="shape=rhombus;perimeter=rhombusPerimeter;whiteSpace=wrap;html=1;align=center;fontSize=15;fillColor=#fff2cc;strokeColor=#d6b656;" parent="1" vertex="1">
          <mxGeometry x="350" y="280" width="120" height="45" as="geometry" />
        </mxCell>
      </root>
    </mxGraphModel>
  </diagram>
</mxfile>
